<?xml version="1.0" standalone="no"?>
<!DOCTYPE svg PUBLIC "-//W3C//DTD SVG 20010904//EN"
 "http://www.w3.org/TR/2001/REC-SVG-20010904/DTD/svg10.dtd">
<svg version="1.0" xmlns="http://www.w3.org/2000/svg"
 width="300.000000pt" height="261.000000pt" viewBox="0 0 300.000000 261.000000"
 preserveAspectRatio="xMidYMid meet">
<metadata>
Created by potrace 1.10, written by Peter Selinger 2001-2011
</metadata>
<g transform="translate(0.000000,261.000000) scale(0.100000,-0.100000)"
fill="#000000" stroke="none">
<path d="M1365 2532 c-55 -37 -172 -114 -260 -171 -627 -410 -656 -430 -521
-357 74 40 278 165 286 176 3 4 12 10 20 14 23 10 111 67 380 245 47 31 89 58
95 60 5 2 14 8 20 13 5 4 31 24 57 43 45 34 47 34 53 14 4 -12 10 -17 14 -11
6 11 36 4 176 -38 39 -12 95 -28 125 -36 30 -8 82 -23 115 -33 33 -10 78 -24
100 -30 22 -6 72 -20 110 -32 134 -39 520 -151 609 -175 48 -13 104 -24 124
-24 36 0 36 0 17 -19 -11 -10 -141 -91 -290 -181 -148 -89 -342 -206 -430
-260 -88 -53 -279 -169 -425 -257 l-265 -161 -16 -103 c-9 -57 -33 -207 -53
-334 -20 -126 -48 -297 -61 -380 -13 -82 -34 -211 -46 -285 -11 -74 -25 -142
-30 -151 -9 -17 -11 -16 -284 106 -102 46 -146 65 -150 65 -2 0 -32 13 -67 29
-119 54 -206 91 -217 91 -6 0 -11 4 -11 8 0 4 -25 16 -55 27 -30 10 -55 22
-55 27 0 4 -8 8 -18 8 -9 0 -23 9 -30 20 -11 18 -10 20 10 21 24 1 28 1 105
17 26 5 55 10 63 10 18 1 238 36 358 56 46 8 90 20 98 27 8 6 14 27 14 46 0
19 16 136 35 260 19 125 34 227 33 228 -3 1 -179 39 -353 75 -196 42 -353 79
-386 92 -45 19 -57 14 -65 -28 -3 -19 -10 -37 -15 -40 -5 -3 -9 -20 -9 -38 0
-18 -4 -46 -9 -62 -5 -16 -15 -58 -22 -93 -8 -44 -15 -59 -19 -46 -6 18 -7 18
-17 1 -8 -14 -11 -2 -17 55 -3 41 -11 99 -16 129 -9 52 -24 157 -35 247 -3 23
-10 75 -15 115 -17 132 -12 146 47 129 15 -5 53 -14 83 -21 59 -13 421 -109
530 -140 36 -10 137 -37 225 -60 88 -23 215 -57 282 -76 68 -19 131 -34 140
-33 25 1 9 6 -317 93 -157 41 -301 80 -320 86 -19 5 -96 26 -170 45 -291 78
-328 88 -400 111 l-75 24 65 -5 c36 -3 93 -7 128 -10 44 -4 74 0 100 11 33 13
81 14 432 5 217 -6 459 -11 537 -12 l141 -1 94 65 c101 69 407 280 500 343 57
39 70 54 45 54 -8 0 -156 45 -330 101 l-317 100 -137 -50 c-510 -185 -897
-321 -912 -321 -35 0 -41 -21 -41 -147 l0 -123 -185 0 -185 0 0 -24 c0 -22 41
-353 90 -721 11 -82 20 -165 20 -182 0 -70 16 -26 48 130 60 296 78 376 84
383 4 4 87 -72 185 -167 446 -436 513 -503 513 -511 0 -4 -12 -8 -27 -8 -24 0
-593 -86 -713 -108 -43 -8 -44 -9 -20 -20 187 -86 985 -432 996 -432 8 0 95
71 193 157 l179 157 21 115 c67 364 111 615 111 632 0 12 4 19 10 17 14 -5
440 -360 440 -367 0 -7 -285 -262 -306 -274 -8 -4 -14 -12 -14 -16 0 -5 30 4
68 19 37 15 146 55 242 89 96 34 182 65 190 69 8 5 40 85 72 178 143 428 451
1370 452 1382 1 9 -106 44 -339 112 -187 54 -504 146 -705 204 -201 58 -374
106 -385 105 -11 0 -65 -31 -120 -67z m195 -269 c0 9 4 17 9 17 11 0 369 -112
431 -135 25 -9 60 -20 79 -25 70 -18 76 -12 -149 -165 -63 -43 -137 -94 -165
-114 -122 -86 -190 -129 -197 -125 -5 3 -8 84 -8 181 0 97 -2 174 -5 172 -2
-3 -5 -72 -6 -155 0 -82 -3 -171 -6 -198 l-6 -48 -171 6 c-94 3 -310 8 -481
11 -295 6 -394 11 -403 20 -6 6 -3 186 3 196 10 15 78 42 330 134 72 26 139
51 150 55 11 4 74 27 140 50 66 23 190 67 275 99 l155 58 12 -26 c9 -18 12
-21 13 -8z m1290 -172 c0 -5 -14 -49 -31 -98 -17 -48 -42 -124 -56 -168 -14
-44 -41 -125 -60 -180 -19 -55 -45 -137 -58 -183 -13 -46 -27 -88 -32 -95 -5
-7 -15 -30 -21 -52 -33 -112 -64 -213 -73 -234 -5 -13 -25 -73 -45 -135 -19
-61 -39 -120 -43 -131 -5 -11 -15 -40 -22 -65 -27 -95 -37 -104 -169 -146 -25
-8 -54 -19 -65 -23 -50 -22 -86 -33 -90 -29 -2 2 32 39 75 82 44 43 80 87 80
97 0 11 1 21 1 24 3 11 49 183 88 329 23 87 40 160 38 162 -2 2 -14 -33 -27
-78 -13 -46 -31 -112 -42 -148 -10 -36 -29 -104 -42 -152 -13 -47 -29 -95 -34
-105 -10 -17 -11 -17 -18 1 -10 27 -30 46 -174 165 -69 57 -141 116 -159 132
-19 16 -45 32 -58 35 -13 4 -23 9 -23 13 0 7 61 45 290 178 68 40 129 78 135
85 5 6 -6 2 -25 -9 -108 -62 -221 -128 -262 -154 -27 -15 -48 -26 -48 -24 0 2
-16 -7 -36 -20 -20 -14 -42 -25 -48 -25 -24 -1 -57 -41 -71 -87 -7 -26 -23
-104 -35 -173 -12 -69 -26 -150 -31 -180 -19 -102 -49 -265 -54 -299 -7 -45
-3 -39 -108 -132 -186 -165 -187 -166 -187 -135 0 15 20 147 45 296 8 47 21
128 30 180 8 52 17 105 19 116 4 20 40 248 50 319 11 80 36 203 45 227 8 22
58 68 75 68 3 0 22 12 43 26 21 14 47 30 58 35 11 5 32 17 47 27 14 9 84 52
155 95 70 43 135 82 143 88 147 90 332 199 340 199 6 0 10 3 10 8 0 4 9 12 19
17 17 9 131 78 356 215 79 49 105 59 105 41z m-2204 -911 c98 -22 224 -50 279
-61 153 -32 148 -29 140 -97 -4 -31 -9 -68 -11 -82 -13 -81 -24 -151 -30 -195
-10 -80 -15 -83 -67 -33 -185 176 -507 494 -507 500 0 12 1 12 196 -32z"/>
</g>
</svg>
